<svg id="Layer_1" data-name="Layer 1" xmlns="http://www.w3.org/2000/svg" viewBox="0 0 672.78 284.11">
  <defs>
    <style>
      .cls-1 {
        fill: none;
      }

      .cls-2 {
        fill: #fff;
      }

      .cls-3 {
        fill: #bddb59;
      }

      .cls-4 {
        fill: #249fab;
      }
    </style>
  </defs>
  <title>meetjs-logo-white-poznan</title>
  <g id="logo">
    <rect id="safearea" class="cls-1" width="672.78" height="284.11"/>
    <g id="meet">
      <path id="m" class="cls-2" d="M300.77,306.29H261.93V288.17h8.7V269.91q0-8.26-3.91-12.61t-11-4.35q-7.39,0-13,7.54a43.77,43.77,0,0,1,.72,7.68v20h9.86v18.12h-38.7V288.17h8.7V269.91q0-8.26-3.91-12.61t-11-4.35q-6.52,0-12.32,7.54v27.69h9.86v18.12h-40V288.17h10V255h-10V236.86H196v4.2q6.81-6.38,17.1-6.38a28.26,28.26,0,0,1,22.18,9.86A38.1,38.1,0,0,1,246.64,237a36.88,36.88,0,0,1,13.84-2.32,28.4,28.4,0,0,1,21.6,9.28q8.7,9.28,8.7,24.21v20h10v18.12Z" transform="translate(-84.55 -155.58)"/>
      <path id="e1" class="cls-2" d="M376.44,279H326q3.62,12.18,17.39,12.18,8.26,0,11.6-5.22h21a29.15,29.15,0,0,1-12,16.23,36.55,36.55,0,0,1-21.24,6.23q-16.52,0-26.89-10.51t-10.36-26.31q0-15.65,10.22-25.95t26.16-10.29q15.36,0,25.15,9.64t9.78,25.15A65.26,65.26,0,0,1,376.44,279Zm-44.64-24.5a18.65,18.65,0,0,0-5.8,9.57h31.89a17.08,17.08,0,0,0-5.07-9.57,14.55,14.55,0,0,0-10.29-3.62A15.84,15.84,0,0,0,331.8,254.54Z" transform="translate(-84.55 -155.58)"/>
      <path id="e2" class="cls-2" d="M454.57,279H404.13q3.62,12.18,17.39,12.18,8.26,0,11.6-5.22h21a29.15,29.15,0,0,1-12,16.23,36.55,36.55,0,0,1-21.24,6.23q-16.52,0-26.89-10.51T383.7,271.65q0-15.65,10.22-25.95t26.16-10.29q15.36,0,25.15,9.64T455,270.2A65.26,65.26,0,0,1,454.57,279Zm-44.64-24.5a18.65,18.65,0,0,0-5.8,9.57H436a17.08,17.08,0,0,0-5.07-9.57,14.54,14.54,0,0,0-10.29-3.62A15.84,15.84,0,0,0,409.93,254.54Z" transform="translate(-84.55 -155.58)"/>
      <path id="t" class="cls-2" d="M521.69,305.27a64.12,64.12,0,0,1-18.84,3.19q-12.61,0-20.22-8.19T475,278.6V255h-15.8V236.86H475V216.13h20.15v20.73h23.63V255H495.16v23.48q0,11.45,12,11.45A49.34,49.34,0,0,0,519.08,288Z" transform="translate(-84.55 -155.58)"/>
    </g>
    <rect id="dot" class="cls-3" x="447.41" y="130.39" width="20.32" height="20.32"/>
    <g id="js">
      <path id="j" class="cls-4" d="M594.6,309.62q0,14.21-5.36,21.53t-20,12.54l-7.68-16.09q7.83-4.06,10.36-7.17t2.54-9.2V255H560.54V236.86H594.6v72.76Zm0-102.5H574.28v20.32H594.6V207.12Z" transform="translate(-84.55 -155.58)"/>
      <path id="s" class="cls-4" d="M653.89,264.25a32.39,32.39,0,0,1,15.94,7.17q6.23,5.44,6.23,14.86,0,10.15-7.32,16.16t-19.64,6a37.7,37.7,0,0,1-23.34-7.54v5.36H607.65V281.65h17.68a53.33,53.33,0,0,0,9.93,8.55,20,20,0,0,0,10.8,2.75q9.13,0,9.13-5.65,0-4.93-7.68-6.38L636.06,279Q610,274.4,610,256.43q0-10.44,8-16.09t20.51-5.65q10.87,0,17.54,5.51v-3.62h18.12v22H656.35q-3.91-3.62-5.51-4.86a23.93,23.93,0,0,0-4.64-2.61,15.64,15.64,0,0,0-6.52-1.38q-8.41,0-8.41,5.51,0,5.07,9.28,6.81Z" transform="translate(-84.55 -155.58)"/>
    </g>
    <g id="poznan">
      <path class="cls-4" d="M297.1,348.75a18.63,18.63,0,0,1,0,25.49,16.38,16.38,0,0,1-12.24,5.22,17.56,17.56,0,0,1-9.72-2.74v7.63h7.06v9.07h-22v-9.07h5V353.25h-5v-9h15v2a17.56,17.56,0,0,1,9.72-2.74A16.38,16.38,0,0,1,297.1,348.75Zm-7.49,19.41a10.06,10.06,0,0,0,0-13.32,8.15,8.15,0,0,0-6.34-2.81,11.87,11.87,0,0,0-8.14,3.31v12.31a11.88,11.88,0,0,0,8.14,3.31A8.15,8.15,0,0,0,289.61,368.15Z" transform="translate(-84.55 -155.58)"/>
      <path class="cls-4" d="M337.67,348.64A17.05,17.05,0,0,1,343,361.53a17.48,17.48,0,0,1-5.36,13.07,19.74,19.74,0,0,1-26.75,0,17.43,17.43,0,0,1-5.4-13.07,17,17,0,0,1,5.36-12.89A20.1,20.1,0,0,1,337.67,348.64Zm-7,19.55a9.32,9.32,0,0,0,2.56-6.66,8.93,8.93,0,0,0-2.52-6.48,9.22,9.22,0,0,0-12.82,0,8.93,8.93,0,0,0-2.52,6.48,9.39,9.39,0,0,0,2.52,6.66A8.91,8.91,0,0,0,330.69,368.19Z" transform="translate(-84.55 -155.58)"/>
      <path class="cls-4" d="M379.61,378.74H346.49V373l19.15-20.52H355.2v4.75h-9v-13h32.69v6.48l-18.51,19.73h10.23v-5.33h9v13.61Z" transform="translate(-84.55 -155.58)"/>
      <path class="cls-4" d="M429,378.74H409.78v-9H414v-9.07q0-4.1-1.94-6.26a7,7,0,0,0-5.47-2.16q-4,0-7.49,4.18v13.32H404v9H384.14v-9h5V353.25h-5v-9h15v2.52a15.07,15.07,0,0,1,9.79-3.6,14.15,14.15,0,0,1,11,4.54q4.14,4.54,4.14,12.1v9.94h5v9Z" transform="translate(-84.55 -155.58)"/>
      <path class="cls-4" d="M468.39,369.74h5v9h-15v-2a17.69,17.69,0,0,1-9.79,2.74,16.3,16.3,0,0,1-12.17-5.22,18.63,18.63,0,0,1,0-25.49,16.3,16.3,0,0,1,12.17-5.22,17.69,17.69,0,0,1,9.79,2.74v-2h15v9h-5v16.49Zm-10-2.09V355.33a11.87,11.87,0,0,0-8.14-3.31,8.15,8.15,0,0,0-6.34,2.81,10.06,10.06,0,0,0,0,13.32,8.15,8.15,0,0,0,6.34,2.81A11.87,11.87,0,0,0,458.38,367.65Z" transform="translate(-84.55 -155.58)"/>
      <path class="cls-4" d="M523,378.74H503.81v-9h4.25v-9.07q0-4.1-1.94-6.26a7,7,0,0,0-5.47-2.16q-4,0-7.49,4.18v13.32H498v9H478.18v-9h5V353.25h-5v-9h15v2.52a15.07,15.07,0,0,1,9.79-3.6,14.15,14.15,0,0,1,11,4.54q4.14,4.54,4.14,12.1v9.94h5v9Zm-27-39.53,4.82-11.88h11.3v3.82l-7.92,8.06H496Z" transform="translate(-84.55 -155.58)"/>
    </g>
  </g>
</svg>
