<svg id="Layer_1" data-name="Layer 1" xmlns="http://www.w3.org/2000/svg" viewBox="0 0 672.78 284.11">
  <defs>
    <style>
      .cls-1 {
        fill: none;
      }

      .cls-2 {
        fill: #fff;
      }

      .cls-3 {
        fill: #bddb59;
      }

      .cls-4 {
        fill: #249fab;
      }
    </style>
  </defs>
  <title>meetjs-logo-white-szczecin</title>
  <g id="logo">
    <rect id="safearea" class="cls-1" width="672.78" height="284.11"/>
    <g id="meet">
      <path id="m" class="cls-2" d="M300.77,306.29H261.93V288.17h8.7V269.91q0-8.26-3.91-12.61t-11-4.35q-7.39,0-13,7.54a43.77,43.77,0,0,1,.72,7.68v20h9.86v18.12h-38.7V288.17h8.7V269.91q0-8.26-3.91-12.61t-11-4.35q-6.52,0-12.32,7.54v27.69h9.86v18.12h-40V288.17h10V255h-10V236.86H196v4.2q6.81-6.38,17.1-6.38a28.26,28.26,0,0,1,22.18,9.86A38.1,38.1,0,0,1,246.64,237a36.88,36.88,0,0,1,13.84-2.32,28.4,28.4,0,0,1,21.6,9.28q8.7,9.28,8.7,24.21v20h10v18.12Z" transform="translate(-84.55 -155.58)"/>
      <path id="e1" class="cls-2" d="M376.44,279H326q3.62,12.18,17.39,12.18,8.26,0,11.6-5.22h21a29.15,29.15,0,0,1-12,16.23,36.55,36.55,0,0,1-21.24,6.23q-16.52,0-26.89-10.51t-10.36-26.31q0-15.65,10.22-25.95t26.16-10.29q15.36,0,25.15,9.64t9.78,25.15A65.26,65.26,0,0,1,376.44,279Zm-44.64-24.5a18.65,18.65,0,0,0-5.8,9.57h31.89a17.08,17.08,0,0,0-5.07-9.57,14.55,14.55,0,0,0-10.29-3.62A15.84,15.84,0,0,0,331.8,254.54Z" transform="translate(-84.55 -155.58)"/>
      <path id="e2" class="cls-2" d="M454.57,279H404.13q3.62,12.18,17.39,12.18,8.26,0,11.6-5.22h21a29.15,29.15,0,0,1-12,16.23,36.55,36.55,0,0,1-21.24,6.23q-16.52,0-26.89-10.51T383.7,271.65q0-15.65,10.22-25.95t26.16-10.29q15.36,0,25.15,9.64T455,270.2A65.26,65.26,0,0,1,454.57,279Zm-44.64-24.5a18.65,18.65,0,0,0-5.8,9.57H436a17.08,17.08,0,0,0-5.07-9.57,14.54,14.54,0,0,0-10.29-3.62A15.84,15.84,0,0,0,409.93,254.54Z" transform="translate(-84.55 -155.58)"/>
      <path id="t" class="cls-2" d="M521.69,305.27a64.12,64.12,0,0,1-18.84,3.19q-12.61,0-20.22-8.19T475,278.6V255h-15.8V236.86H475V216.13h20.15v20.73h23.63V255H495.16v23.48q0,11.45,12,11.45A49.34,49.34,0,0,0,519.08,288Z" transform="translate(-84.55 -155.58)"/>
    </g>
    <rect id="dot" class="cls-3" x="447.41" y="130.39" width="20.32" height="20.32"/>
    <g id="js">
      <path id="j" class="cls-4" d="M594.6,309.62q0,14.21-5.36,21.53t-20,12.54l-7.68-16.09q7.83-4.06,10.36-7.17t2.54-9.2V255H560.54V236.86H594.6v72.76Zm0-102.5H574.28v20.32H594.6V207.12Z" transform="translate(-84.55 -155.58)"/>
      <path id="s" class="cls-4" d="M653.89,264.25a32.39,32.39,0,0,1,15.94,7.17q6.23,5.44,6.23,14.86,0,10.15-7.32,16.16t-19.64,6a37.7,37.7,0,0,1-23.34-7.54v5.36H607.65V281.65h17.68a53.33,53.33,0,0,0,9.93,8.55,20,20,0,0,0,10.8,2.75q9.13,0,9.13-5.65,0-4.93-7.68-6.38L636.06,279Q610,274.4,610,256.43q0-10.44,8-16.09t20.51-5.65q10.87,0,17.54,5.51v-3.62h18.12v22H656.35q-3.91-3.62-5.51-4.86a23.93,23.93,0,0,0-4.64-2.61,15.64,15.64,0,0,0-6.52-1.38q-8.41,0-8.41,5.51,0,5.07,9.28,6.81Z" transform="translate(-84.55 -155.58)"/>
    </g>
    <g id="szczecin">
      <path class="cls-4" d="M245.55,357.85a16.09,16.09,0,0,1,7.92,3.56,9.29,9.29,0,0,1,3.1,7.38,9.85,9.85,0,0,1-3.64,8q-3.64,3-9.76,3a18.73,18.73,0,0,1-11.59-3.74v2.66h-9V366.5h8.78a26.48,26.48,0,0,0,4.93,4.25,10,10,0,0,0,5.36,1.37q4.54,0,4.54-2.81,0-2.45-3.82-3.17l-5.69-.94q-13-2.3-13-11.23a9.19,9.19,0,0,1,4-8,17.32,17.32,0,0,1,10.19-2.81,13.24,13.24,0,0,1,8.71,2.74v-1.8h9V355h-8.86q-1.94-1.8-2.74-2.41a11.87,11.87,0,0,0-2.3-1.3,7.77,7.77,0,0,0-3.24-.68q-4.18,0-4.18,2.74,0,2.52,4.61,3.38Z" transform="translate(-84.55 -155.58)"/>
      <path class="cls-4" d="M293.71,378.74H260.59V373l19.15-20.52H269.31v4.75h-9v-13H293v6.48l-18.51,19.73h10.23v-5.33h9v13.61Z" transform="translate(-84.55 -155.58)"/>
      <path class="cls-4" d="M333.6,365.2a15.63,15.63,0,0,1-5.44,10.37,17.62,17.62,0,0,1-11.85,4,19.41,19.41,0,0,1-13.79-5.08,16.91,16.91,0,0,1-5.44-12.93,17.17,17.17,0,0,1,5.22-12.85,18.08,18.08,0,0,1,13.14-5.08,14.51,14.51,0,0,1,8.71,2.59v-1.94h9.22v13.61h-9.5a6.87,6.87,0,0,0-2.7-4,8.22,8.22,0,0,0-4.93-1.48,9.09,9.09,0,0,0-6.59,2.63,9.13,9.13,0,0,0,0,13,9.09,9.09,0,0,0,6.59,2.63,7.82,7.82,0,0,0,4.75-1.48,6.91,6.91,0,0,0,2.66-3.92h9.94Z" transform="translate(-84.55 -155.58)"/>
      <path class="cls-4" d="M371.55,378.74H338.42V373l19.15-20.52H347.14v4.75h-9v-13h32.69v6.48l-18.51,19.73h10.23v-5.33h9v13.61Z" transform="translate(-84.55 -155.58)"/>
      <path class="cls-4" d="M410.14,365.2H385.08q1.8,6,8.64,6,4.1,0,5.76-2.59h10.44a14.48,14.48,0,0,1-5.94,8.06,18.15,18.15,0,0,1-10.55,3.1q-8.21,0-13.36-5.22a17.86,17.86,0,0,1-5.15-13.07,17.43,17.43,0,0,1,18.07-18,17,17,0,0,1,12.49,4.79q4.86,4.79,4.86,12.49A32.39,32.39,0,0,1,410.14,365.2ZM388,353a9.26,9.26,0,0,0-2.88,4.75h15.84A8.48,8.48,0,0,0,398.4,353a7.23,7.23,0,0,0-5.11-1.8A7.87,7.87,0,0,0,388,353Z" transform="translate(-84.55 -155.58)"/>
      <path class="cls-4" d="M450.24,365.2a15.63,15.63,0,0,1-5.44,10.37,17.62,17.62,0,0,1-11.84,4,19.41,19.41,0,0,1-13.79-5.08,16.91,16.91,0,0,1-5.44-12.93A17.17,17.17,0,0,1,419,348.67a18.08,18.08,0,0,1,13.14-5.08,14.51,14.51,0,0,1,8.71,2.59v-1.94H450v13.61h-9.5a6.87,6.87,0,0,0-2.7-4,8.22,8.22,0,0,0-4.93-1.48A9.09,9.09,0,0,0,426.3,355a9.13,9.13,0,0,0,0,13,9.09,9.09,0,0,0,6.59,2.63,7.83,7.83,0,0,0,4.75-1.48,6.92,6.92,0,0,0,2.66-3.92h9.94Z" transform="translate(-84.55 -155.58)"/>
      <path class="cls-4" d="M474.65,378.74H454.78v-9h5V353.25h-5v-9h15v25.49h4.9v9Zm-14.65-41a6,6,0,0,1-1.91-4.5,6.08,6.08,0,0,1,1.91-4.57,6.79,6.79,0,0,1,9.29,0,6.08,6.08,0,0,1,1.91,4.57,6,6,0,0,1-1.91,4.5A6.79,6.79,0,0,1,460,337.73Z" transform="translate(-84.55 -155.58)"/>
      <path class="cls-4" d="M523,378.74H503.81v-9h4.25v-9.07q0-4.1-1.94-6.26a7,7,0,0,0-5.47-2.16q-4,0-7.49,4.18v13.32H498v9H478.18v-9h5V353.25h-5v-9h15v2.52a15.06,15.06,0,0,1,9.79-3.6,14.16,14.16,0,0,1,11,4.54q4.14,4.54,4.14,12.1v9.94h5v9Z" transform="translate(-84.55 -155.58)"/>
    </g>
  </g>
</svg>
